<?xml version="1.0" encoding="utf-8"?>
<!-- Generator: Adobe Illustrator 25.4.1, SVG Export Plug-In . SVG Version: 6.00 Build 0)  -->
<svg version="1.1" id="Calque_1" xmlns="http://www.w3.org/2000/svg" xmlns:xlink="http://www.w3.org/1999/xlink" x="0px" y="0px"
	 viewBox="0 0 258 128" style="enable-background:new 0 0 258 128;" xml:space="preserve">
<style type="text/css">
	.st0{fill:#FFDA00;}
	.st1{fill:#878787;}
</style>
<path class="st0" d="M12.61,46.32c-7.82,3.7-11.18,13.04-7.5,20.87c3.68,7.84,13,11.21,20.85,7.56l0,0l90.78-42.64l0,0
	c0.03-0.01,0.06-0.02,0.09-0.04c7.85-3.69,11.23-13.04,7.54-20.9c-3.69-7.85-13.04-11.23-20.9-7.54c-0.03,0.01-0.05,0.03-0.08,0.04
	l0,0L12.61,46.32L12.61,46.32z"/>
<path class="st0" d="M246.54,81.64c7.82-3.7,11.17-13.04,7.49-20.87c-3.68-7.84-13-11.21-20.85-7.56l0,0L142.4,95.85l0,0
	c-0.03,0.01-0.06,0.02-0.09,0.04c-7.85,3.69-11.23,13.04-7.54,20.9c3.69,7.85,13.04,11.23,20.9,7.54c0.03-0.01,0.05-0.03,0.08-0.04
	l0,0L246.54,81.64L246.54,81.64z"/>
<path class="st1" d="M26.66,48.52c-7.62-4.09-17.12-1.25-21.24,6.36S4.12,72,11.72,76.14l0,0l88.21,47.72l0,0
	c0.03,0.02,0.05,0.03,0.08,0.05c7.63,4.13,17.16,1.29,21.29-6.34s1.29-17.16-6.34-21.29c-0.03-0.02-0.06-0.03-0.08-0.04l0,0
	L26.66,48.52L26.66,48.52z"/>
<path class="st1" d="M232.49,79.44c7.62,4.09,17.12,1.25,21.24-6.36c4.12-7.61,1.3-17.12-6.3-21.26l0,0l-88.2-47.73l0,0
	c-0.03-0.02-0.05-0.03-0.08-0.05c-7.63-4.13-17.16-1.29-21.29,6.34s-1.29,17.16,6.34,21.29c0.03,0.02,0.06,0.03,0.08,0.04l0,0
	L232.49,79.44L232.49,79.44z"/>
</svg>
