<svg xmlns="http://www.w3.org/2000/svg" viewBox="-10 -10 84 84">
    <g data-name="Upward Arrow">
        <polygon fill="#303030" points="63 43 32 12 1 43 1 32 32 1 63 32 63 43"></polygon>
        <polygon fill="#303030" points="63 63 32 32 1 63 1 52 32 21 63 52 63 63"></polygon>
        <path fill="#303030" d="M31.293.293l-31,31A1,1,0,0,0,0,32V43a1,1,0,0,0,1.707.707L32,13.4141,62.293,43.707A1,1,0,0,0,64,43V32a1,1,0,0,0-.293-.707l-31-31A.9994.9994,0,0,0,31.293.293ZM62,32.4141v8.1718L32.707,11.293a.9994.9994,0,0,0-1.414,0L2,40.5859V32.4141l30-30Z"></path>
        <path fill="#303030" d="M31.293,20.293l-31,31A1,1,0,0,0,0,52V63a1,1,0,0,0,1.707.707L32,33.4141,62.293,63.707A1,1,0,0,0,64,63V52a1,1,0,0,0-.293-.707l-31-31A.9994.9994,0,0,0,31.293,20.293ZM62,52.4141v8.1718L32.707,31.293a.9994.9994,0,0,0-1.414,0L2,60.5859V52.4141l30-30Z"></path>
    </g>
</svg>